<!DOCTYPE svg PUBLIC "-//W3C//DTD SVG 1.1//EN" "http://www.w3.org/Graphics/SVG/1.1/DTD/svg11.dtd">
<!-- Uploaded to: SVG Repo, www.svgrepo.com, Transformed by: SVG Repo Mixer Tools -->
<svg fill="#002db3" width="800px" height="800px" viewBox="0 0 24 24" xmlns="http://www.w3.org/2000/svg" stroke="#002db3">
<g id="SVGRepo_bgCarrier" stroke-width="0"/>
<g id="SVGRepo_tracerCarrier" stroke-linecap="round" stroke-linejoin="round" stroke="#CCCCCC" stroke-width="0.72"/>
<g id="SVGRepo_iconCarrier">
<path d="M5,22H19a3,3,0,0,0,3-3V9a3,3,0,0,0-3-3H17V4a2,2,0,0,0-2-2H9A2,2,0,0,0,7,4V6H5A3,3,0,0,0,2,9V19A3,3,0,0,0,5,22ZM18,8h1a1,1,0,0,1,1,1V19a1,1,0,0,1-1,1H18ZM9,4h6V6H9ZM8,8h8V20H8ZM4,9A1,1,0,0,1,5,8H6V20H5a1,1,0,0,1-1-1Z"/>
</g>
</svg>