<!DOCTYPE svg PUBLIC "-//W3C//DTD SVG 1.1//EN" "http://www.w3.org/Graphics/SVG/1.1/DTD/svg11.dtd">
<!-- Uploaded to: SVG Repo, www.svgrepo.com, Transformed by: SVG Repo Mixer Tools -->
<svg fill="#008f1d" height="800px" width="800px" version="1.1" id="Layer_1" xmlns="http://www.w3.org/2000/svg" xmlns:xlink="http://www.w3.org/1999/xlink" viewBox="0 0 512 512" xml:space="preserve">
<g id="SVGRepo_bgCarrier" stroke-width="0"/>
<g id="SVGRepo_tracerCarrier" stroke-linecap="round" stroke-linejoin="round"/>
<g id="SVGRepo_iconCarrier"> <g> <g> <g> <path d="M452.184,64.414l-13.12-2.624C378.866,49.751,320.505,29.724,265.538,2.251c-6.004-3.001-13.071-3.001-19.075,0 C191.478,29.733,133.136,49.754,72.938,61.79l-13.121,2.624c-9.972,1.994-17.149,10.75-17.149,20.919v78.549 c0,91.952,36.531,180.151,101.544,245.165l96.704,96.704c8.331,8.331,21.839,8.331,30.17,0l96.704-96.704 c65.014-65.014,101.544-153.213,101.544-245.165V85.333C469.333,75.164,462.156,66.409,452.184,64.414z M426.667,163.883 c0,80.636-32.036,157.983-89.048,214.995L256,460.497l-81.619-81.619c-57.012-57.012-89.048-134.359-89.048-214.995v-61.072 C144.359,90.665,201.669,71.279,256,45.097c54.318,26.174,111.642,45.564,170.667,57.714V163.883z"/> <path d="M181.338,170.662c0,10.104,2.131,19.884,6.11,29.063l-16.465,95.305c-2.253,13.041,7.788,24.965,21.022,24.965h128 c13.234,0,23.275-11.924,21.022-24.965l-16.465-95.305c3.978-9.18,6.11-18.959,6.11-29.063c0-41.243-33.423-74.667-74.667-74.667 S181.338,129.419,181.338,170.662z M228.264,186.122c-2.818-5.037-4.26-10.209-4.26-15.46c0-17.679,14.321-32,32-32 s32,14.321,32,32c0,5.251-1.441,10.423-4.26,15.46c-2.389,4.269-3.238,9.229-2.405,14.049l13.33,77.158h-77.33l13.33-77.158 C231.502,195.351,230.653,190.391,228.264,186.122z"/> </g> </g> </g> </g>
</svg>